		<svg class="lds-gears" width="100%" height="100%" xmlns="http://www.w3.org/2000/svg" xmlns:xlink="http://www.w3.org/1999/xlink" viewBox="0 0 100 100" preserveAspectRatio="xMidYMid"><g transform="translate(50 50)"> <g transform="translate(-19 -19) scale(0.6)"> <g>
		<animateTransform attributeName="transform" type="rotate" values="0;360" keyTimes="0;1" dur="6s" begin="0s" repeatCount="indefinite"></animateTransform><path d="M37.037143518365454 -8.5 L47.037143518365454 -8.5 L47.037143518365454 8.5 L37.037143518365454 8.5 A38 38 0 0 1 32.19962297770125 20.17880769752994 L32.19962297770125 20.17880769752994 L39.27069078956673 27.249875509395416 L27.249875509395416 39.27069078956673 L20.17880769752994 32.19962297770125 A38 38 0 0 1 8.500000000000007 37.03714351836545 L8.500000000000007 37.03714351836545 L8.500000000000007 47.03714351836545 L-8.500000000000002 47.037143518365454 L-8.500000000000002 37.037143518365454 A38 38 0 0 1 -20.178807697529933 32.19962297770125 L-20.178807697529933 32.19962297770125 L-27.24987550939541 39.27069078956673 L-39.27069078956673 27.249875509395416 L-32.19962297770125 20.17880769752994 A38 38 0 0 1 -37.03714351836545 8.500000000000007 L-37.03714351836545 8.500000000000007 L-47.03714351836545 8.500000000000009 L-47.037143518365454 -8.499999999999998 L-37.037143518365454 -8.5 A38 38 0 0 1 -32.19962297770125 -20.178807697529933 L-32.19962297770125 -20.178807697529933 L-39.27069078956673 -27.24987550939541 L-27.24987550939542 -39.27069078956672 L-20.178807697529944 -32.199622977701246 A38 38 0 0 1 -8.50000000000001 -37.03714351836545 L-8.50000000000001 -37.03714351836545 L-8.500000000000012 -47.03714351836545 L8.499999999999995 -47.037143518365454 L8.499999999999996 -37.037143518365454 A38 38 0 0 1 20.178807697529933 -32.19962297770126 L20.178807697529933 -32.19962297770126 L27.24987550939541 -39.270690789566736 L39.27069078956672 -27.24987550939542 L32.199622977701246 -20.178807697529944 A38 38 0 0 1 37.03714351836545 -8.500000000000012 M0 -22A22 22 0 1 0 0 22 A22 22 0 1 0 0 -22" fill="#383838"></path></g></g> <g transform="translate(19 19) scale(0.6)"> <g>
		<animateTransform attributeName="transform" type="rotate" values="360;0" keyTimes="0;1" dur="6s" begin="-0.375s" repeatCount="indefinite"></animateTransform><path d="M37.037143518365454 -8.5 L47.037143518365454 -8.5 L47.037143518365454 8.5 L37.037143518365454 8.5 A38 38 0 0 1 32.19962297770125 20.17880769752994 L32.19962297770125 20.17880769752994 L39.27069078956673 27.249875509395416 L27.249875509395416 39.27069078956673 L20.17880769752994 32.19962297770125 A38 38 0 0 1 8.500000000000007 37.03714351836545 L8.500000000000007 37.03714351836545 L8.500000000000007 47.03714351836545 L-8.500000000000002 47.037143518365454 L-8.500000000000002 37.037143518365454 A38 38 0 0 1 -20.178807697529933 32.19962297770125 L-20.178807697529933 32.19962297770125 L-27.24987550939541 39.27069078956673 L-39.27069078956673 27.249875509395416 L-32.19962297770125 20.17880769752994 A38 38 0 0 1 -37.03714351836545 8.500000000000007 L-37.03714351836545 8.500000000000007 L-47.03714351836545 8.500000000000009 L-47.037143518365454 -8.499999999999998 L-37.037143518365454 -8.5 A38 38 0 0 1 -32.19962297770125 -20.178807697529933 L-32.19962297770125 -20.178807697529933 L-39.27069078956673 -27.24987550939541 L-27.24987550939542 -39.27069078956672 L-20.178807697529944 -32.199622977701246 A38 38 0 0 1 -8.50000000000001 -37.03714351836545 L-8.50000000000001 -37.03714351836545 L-8.500000000000012 -47.03714351836545 L8.499999999999995 -47.037143518365454 L8.499999999999996 -37.037143518365454 A38 38 0 0 1 20.178807697529933 -32.19962297770126 L20.178807697529933 -32.19962297770126 L27.24987550939541 -39.270690789566736 L39.27069078956672 -27.24987550939542 L32.199622977701246 -20.178807697529944 A38 38 0 0 1 37.03714351836545 -8.500000000000012 M0 -22A22 22 0 1 0 0 22 A22 22 0 1 0 0 -22" fill="#919191"></path></g></g></g></svg>